<svg width="1280" height="710" viewBox="0 0 1280 710" fill="none" xmlns="http://www.w3.org/2000/svg">
<g clip-path="url(#clip0_5_26)">
<mask id="mask0_5_26" style="mask-type:alpha" maskUnits="userSpaceOnUse" x="-101" y="-204" width="1478" height="915">
<path d="M40.9111 -62.5419H-29.3309V7.6893H40.9111V-62.5419Z" stroke="white" stroke-opacity="0.04" stroke-width="0.984621"/>
<path d="M111.153 -62.5419H40.9111V7.6893H111.153V-62.5419Z" stroke="white" stroke-opacity="0.04" stroke-width="0.984621"/>
<path d="M181.395 -62.5419H111.153V7.6893H181.395V-62.5419Z" stroke="white" stroke-opacity="0.04" stroke-width="0.984621"/>
<path d="M251.637 -62.5419H181.395V7.6893H251.637V-62.5419Z" stroke="white" stroke-opacity="0.04" stroke-width="0.984621"/>
<path d="M321.88 -62.5419H251.638V7.6893H321.88V-62.5419Z" stroke="white" stroke-opacity="0.04" stroke-width="0.984621"/>
<path d="M392.122 -62.5419H321.88V7.6893H392.122V-62.5419Z" stroke="white" stroke-opacity="0.04" stroke-width="0.984621"/>
<path d="M462.364 -62.5419H392.122V7.6893H462.364V-62.5419Z" stroke="white" stroke-opacity="0.04" stroke-width="0.984621"/>
<path d="M532.606 -62.5419H462.364V7.6893H532.606V-62.5419Z" stroke="white" stroke-opacity="0.04" stroke-width="0.984621"/>
<path d="M602.848 -62.5419H532.605V7.6893H602.848V-62.5419Z" stroke="white" stroke-opacity="0.04" stroke-width="0.984621"/>
<path d="M673.089 -62.5419H602.847V7.6893H673.089V-62.5419Z" stroke="white" stroke-opacity="0.04" stroke-width="0.984621"/>
<path d="M743.331 -62.5419H673.089V7.6893H743.331V-62.5419Z" stroke="white" stroke-opacity="0.04" stroke-width="0.984621"/>
<path d="M813.573 -62.5419H743.331V7.6893H813.573V-62.5419Z" stroke="white" stroke-opacity="0.04" stroke-width="0.984621"/>
<path d="M883.815 -62.5419H813.573V7.6893H883.815V-62.5419Z" stroke="white" stroke-opacity="0.04" stroke-width="0.984621"/>
<path d="M954.057 -62.5419H883.815V7.6893H954.057V-62.5419Z" stroke="white" stroke-opacity="0.04" stroke-width="0.984621"/>
<path d="M1024.3 -62.5419H954.057V7.6893H1024.3V-62.5419Z" stroke="white" stroke-opacity="0.04" stroke-width="0.984621"/>
<path d="M1094.54 -62.5419H1024.3V7.6893H1094.54V-62.5419Z" fill="white" fill-opacity="0.04" stroke="white" stroke-opacity="0.04" stroke-width="0.984621"/>
<path d="M1164.78 -62.5419H1094.54V7.6893H1164.78V-62.5419Z" stroke="white" stroke-opacity="0.04" stroke-width="0.984621"/>
<path d="M1235.02 -62.5419H1164.78V7.6893H1235.02V-62.5419Z" stroke="white" stroke-opacity="0.04" stroke-width="0.984621"/>
<path d="M1305.27 -62.5419H1235.02V7.6893H1305.27V-62.5419Z" stroke="white" stroke-opacity="0.04" stroke-width="0.984621"/>
<path d="M40.9111 7.69757H-29.3309V77.9288H40.9111V7.69757Z" stroke="white" stroke-opacity="0.04" stroke-width="0.984621"/>
<path d="M111.153 7.69757H40.9111V77.9288H111.153V7.69757Z" stroke="white" stroke-opacity="0.04" stroke-width="0.984621"/>
<path d="M181.395 7.69757H111.153V77.9288H181.395V7.69757Z" stroke="white" stroke-opacity="0.04" stroke-width="0.984621"/>
<path d="M251.637 7.69757H181.395V77.9288H251.637V7.69757Z" stroke="white" stroke-opacity="0.04" stroke-width="0.984621"/>
<path d="M321.88 7.69757H251.638V77.9288H321.88V7.69757Z" stroke="white" stroke-opacity="0.04" stroke-width="0.984621"/>
<path d="M392.122 7.69757H321.88V77.9288H392.122V7.69757Z" stroke="white" stroke-opacity="0.04" stroke-width="0.984621"/>
<path d="M462.364 7.69757H392.122V77.9288H462.364V7.69757Z" stroke="white" stroke-opacity="0.04" stroke-width="0.984621"/>
<path d="M532.606 7.69757H462.364V77.9288H532.606V7.69757Z" stroke="white" stroke-opacity="0.04" stroke-width="0.984621"/>
<path d="M602.848 7.69757H532.605V77.9288H602.848V7.69757Z" stroke="white" stroke-opacity="0.04" stroke-width="0.984621"/>
<path d="M673.089 7.69757H602.847V77.9288H673.089V7.69757Z" stroke="white" stroke-opacity="0.04" stroke-width="0.984621"/>
<path d="M743.331 7.69757H673.089V77.9288H743.331V7.69757Z" stroke="white" stroke-opacity="0.04" stroke-width="0.984621"/>
<path d="M813.573 7.69757H743.331V77.9288H813.573V7.69757Z" stroke="white" stroke-opacity="0.04" stroke-width="0.984621"/>
<path d="M883.815 7.69757H813.573V77.9288H883.815V7.69757Z" stroke="white" stroke-opacity="0.04" stroke-width="0.984621"/>
<path d="M954.057 7.69757H883.815V77.9288H954.057V7.69757Z" stroke="white" stroke-opacity="0.04" stroke-width="0.984621"/>
<path d="M1024.3 7.69757H954.057V77.9288H1024.3V7.69757Z" stroke="white" stroke-opacity="0.04" stroke-width="0.984621"/>
<path d="M1094.54 7.69757H1024.3V77.9288H1094.54V7.69757Z" stroke="white" stroke-opacity="0.04" stroke-width="0.984621"/>
<path d="M1164.78 7.69757H1094.54V77.9288H1164.78V7.69757Z" stroke="white" stroke-opacity="0.04" stroke-width="0.984621"/>
<path d="M1235.02 7.69757H1164.78V77.9288H1235.02V7.69757Z" stroke="white" stroke-opacity="0.04" stroke-width="0.984621"/>
<path d="M1305.27 7.69757H1235.02V77.9288H1305.27V7.69757Z" stroke="white" stroke-opacity="0.04" stroke-width="0.984621"/>
<path d="M40.9111 77.9158H-29.3309V148.147H40.9111V77.9158Z" stroke="white" stroke-opacity="0.04" stroke-width="0.984621"/>
<path d="M111.153 77.9158H40.9111V148.147H111.153V77.9158Z" stroke="white" stroke-opacity="0.04" stroke-width="0.984621"/>
<path d="M181.395 77.9158H111.153V148.147H181.395V77.9158Z" fill="white" fill-opacity="0.04" stroke="white" stroke-opacity="0.04" stroke-width="0.984621"/>
<path d="M251.637 77.9158H181.395V148.147H251.637V77.9158Z" stroke="white" stroke-opacity="0.04" stroke-width="0.984621"/>
<path d="M321.88 77.9158H251.638V148.147H321.88V77.9158Z" stroke="white" stroke-opacity="0.04" stroke-width="0.984621"/>
<path d="M392.122 77.9158H321.88V148.147H392.122V77.9158Z" stroke="white" stroke-opacity="0.04" stroke-width="0.984621"/>
<path d="M462.364 77.9158H392.122V148.147H462.364V77.9158Z" stroke="white" stroke-opacity="0.04" stroke-width="0.984621"/>
<path d="M532.606 77.9158H462.364V148.147H532.606V77.9158Z" stroke="white" stroke-opacity="0.04" stroke-width="0.984621"/>
<path d="M602.848 77.9158H532.605V148.147H602.848V77.9158Z" stroke="white" stroke-opacity="0.04" stroke-width="0.984621"/>
<path d="M673.089 77.9158H602.847V148.147H673.089V77.9158Z" stroke="white" stroke-opacity="0.04" stroke-width="0.984621"/>
<path d="M743.331 77.9158H673.089V148.147H743.331V77.9158Z" stroke="white" stroke-opacity="0.04" stroke-width="0.984621"/>
<path d="M813.573 77.9158H743.331V148.147H813.573V77.9158Z" fill="white" fill-opacity="0.04" stroke="white" stroke-opacity="0.04" stroke-width="0.984621"/>
<path d="M883.815 77.9158H813.573V148.147H883.815V77.9158Z" stroke="white" stroke-opacity="0.04" stroke-width="0.984621"/>
<path d="M954.057 77.9158H883.815V148.147H954.057V77.9158Z" stroke="white" stroke-opacity="0.04" stroke-width="0.984621"/>
<path d="M1024.3 77.9158H954.057V148.147H1024.3V77.9158Z" stroke="white" stroke-opacity="0.04" stroke-width="0.984621"/>
<path d="M1094.54 77.9158H1024.3V148.147H1094.54V77.9158Z" stroke="white" stroke-opacity="0.04" stroke-width="0.984621"/>
<path d="M1164.78 77.9158H1094.54V148.147H1164.78V77.9158Z" stroke="white" stroke-opacity="0.04" stroke-width="0.984621"/>
<path d="M1235.02 77.9158H1164.78V148.147H1235.02V77.9158Z" stroke="white" stroke-opacity="0.04" stroke-width="0.984621"/>
<path d="M1305.27 77.9158H1235.02V148.147H1305.27V77.9158Z" stroke="white" stroke-opacity="0.04" stroke-width="0.984621"/>
<path d="M40.9111 148.156H-29.3309V218.387H40.9111V148.156Z" stroke="white" stroke-opacity="0.04" stroke-width="0.984621"/>
<path d="M111.153 148.156H40.9111V218.387H111.153V148.156Z" stroke="white" stroke-opacity="0.04" stroke-width="0.984621"/>
<path d="M181.395 148.156H111.153V218.387H181.395V148.156Z" stroke="white" stroke-opacity="0.04" stroke-width="0.984621"/>
<path d="M251.637 148.156H181.395V218.387H251.637V148.156Z" stroke="white" stroke-opacity="0.04" stroke-width="0.984621"/>
<path d="M321.88 148.156H251.638V218.387H321.88V148.156Z" stroke="white" stroke-opacity="0.04" stroke-width="0.984621"/>
<path d="M392.122 148.156H321.88V218.387H392.122V148.156Z" stroke="white" stroke-opacity="0.04" stroke-width="0.984621"/>
<path d="M462.364 148.156H392.122V218.387H462.364V148.156Z" stroke="white" stroke-opacity="0.04" stroke-width="0.984621"/>
<path d="M532.606 148.156H462.364V218.387H532.606V148.156Z" stroke="white" stroke-opacity="0.04" stroke-width="0.984621"/>
<path d="M602.848 148.156H532.605V218.387H602.848V148.156Z" stroke="white" stroke-opacity="0.04" stroke-width="0.984621"/>
<path d="M673.089 148.156H602.847V218.387H673.089V148.156Z" stroke="white" stroke-opacity="0.04" stroke-width="0.984621"/>
<path d="M743.331 148.156H673.089V218.387H743.331V148.156Z" stroke="white" stroke-opacity="0.04" stroke-width="0.984621"/>
<path d="M813.573 148.156H743.331V218.387H813.573V148.156Z" stroke="white" stroke-opacity="0.04" stroke-width="0.984621"/>
<path d="M883.815 148.156H813.573V218.387H883.815V148.156Z" stroke="white" stroke-opacity="0.04" stroke-width="0.984621"/>
<path d="M954.057 148.156H883.815V218.387H954.057V148.156Z" stroke="white" stroke-opacity="0.04" stroke-width="0.984621"/>
<path d="M1024.3 148.156H954.057V218.387H1024.3V148.156Z" stroke="white" stroke-opacity="0.04" stroke-width="0.984621"/>
<path d="M1094.54 148.156H1024.3V218.387H1094.54V148.156Z" stroke="white" stroke-opacity="0.04" stroke-width="0.984621"/>
<path d="M1164.78 148.156H1094.54V218.387H1164.78V148.156Z" stroke="white" stroke-opacity="0.04" stroke-width="0.984621"/>
<path d="M1235.02 148.156H1164.78V218.387H1235.02V148.156Z" fill="white" fill-opacity="0.04" stroke="white" stroke-opacity="0.04" stroke-width="0.984621"/>
<path d="M1305.27 148.156H1235.02V218.387H1305.27V148.156Z" stroke="white" stroke-opacity="0.04" stroke-width="0.984621"/>
<path d="M40.9111 218.395H-29.3309V288.626H40.9111V218.395Z" stroke="white" stroke-opacity="0.04" stroke-width="0.984621"/>
<path d="M111.153 218.395H40.9111V288.626H111.153V218.395Z" stroke="white" stroke-opacity="0.04" stroke-width="0.984621"/>
<path d="M181.395 218.395H111.153V288.626H181.395V218.395Z" stroke="white" stroke-opacity="0.04" stroke-width="0.984621"/>
<path d="M251.637 218.395H181.395V288.626H251.637V218.395Z" stroke="white" stroke-opacity="0.04" stroke-width="0.984621"/>
<path d="M321.88 218.395H251.638V288.626H321.88V218.395Z" stroke="white" stroke-opacity="0.04" stroke-width="0.984621"/>
<path d="M392.122 218.395H321.88V288.626H392.122V218.395Z" stroke="white" stroke-opacity="0.04" stroke-width="0.984621"/>
<path d="M462.364 218.395H392.122V288.626H462.364V218.395Z" stroke="white" stroke-opacity="0.04" stroke-width="0.984621"/>
<path d="M532.606 218.395H462.364V288.626H532.606V218.395Z" stroke="white" stroke-opacity="0.04" stroke-width="0.984621"/>
<path d="M602.848 218.395H532.605V288.626H602.848V218.395Z" stroke="white" stroke-opacity="0.04" stroke-width="0.984621"/>
<path d="M673.089 218.395H602.847V288.626H673.089V218.395Z" stroke="white" stroke-opacity="0.04" stroke-width="0.984621"/>
<path d="M743.331 218.395H673.089V288.626H743.331V218.395Z" stroke="white" stroke-opacity="0.04" stroke-width="0.984621"/>
<path d="M813.573 218.395H743.331V288.626H813.573V218.395Z" stroke="white" stroke-opacity="0.04" stroke-width="0.984621"/>
<path d="M883.815 218.395H813.573V288.626H883.815V218.395Z" stroke="white" stroke-opacity="0.04" stroke-width="0.984621"/>
<path d="M954.057 218.395H883.815V288.626H954.057V218.395Z" stroke="white" stroke-opacity="0.04" stroke-width="0.984621"/>
<path d="M1024.3 218.395H954.057V288.626H1024.3V218.395Z" stroke="white" stroke-opacity="0.04" stroke-width="0.984621"/>
<path d="M1094.54 218.395H1024.3V288.626H1094.54V218.395Z" stroke="white" stroke-opacity="0.04" stroke-width="0.984621"/>
<path d="M1164.78 218.395H1094.54V288.626H1164.78V218.395Z" stroke="white" stroke-opacity="0.04" stroke-width="0.984621"/>
<path d="M1235.02 218.395H1164.78V288.626H1235.02V218.395Z" stroke="white" stroke-opacity="0.04" stroke-width="0.984621"/>
<path d="M1305.27 218.395H1235.02V288.626H1305.27V218.395Z" stroke="white" stroke-opacity="0.04" stroke-width="0.984621"/>
<path d="M40.9111 288.613H-29.3309V358.845H40.9111V288.613Z" stroke="white" stroke-opacity="0.04" stroke-width="0.984621"/>
<path d="M111.153 288.613H40.9111V358.845H111.153V288.613Z" stroke="white" stroke-opacity="0.04" stroke-width="0.984621"/>
<path d="M181.395 288.613H111.153V358.845H181.395V288.613Z" stroke="white" stroke-opacity="0.04" stroke-width="0.984621"/>
<path d="M251.637 288.613H181.395V358.845H251.637V288.613Z" stroke="white" stroke-opacity="0.04" stroke-width="0.984621"/>
<path d="M321.88 288.613H251.638V358.845H321.88V288.613Z" stroke="white" stroke-opacity="0.04" stroke-width="0.984621"/>
<path d="M392.122 288.613H321.88V358.845H392.122V288.613Z" stroke="white" stroke-opacity="0.04" stroke-width="0.984621"/>
<path d="M462.364 288.613H392.122V358.845H462.364V288.613Z" stroke="white" stroke-opacity="0.04" stroke-width="0.984621"/>
<path d="M532.606 288.613H462.364V358.845H532.606V288.613Z" fill="white" fill-opacity="0.04" stroke="white" stroke-opacity="0.04" stroke-width="0.984621"/>
<path d="M602.848 288.613H532.605V358.845H602.848V288.613Z" stroke="white" stroke-opacity="0.04" stroke-width="0.984621"/>
<path d="M673.089 288.613H602.847V358.845H673.089V288.613Z" stroke="white" stroke-opacity="0.04" stroke-width="0.984621"/>
<path d="M743.331 288.613H673.089V358.845H743.331V288.613Z" stroke="white" stroke-opacity="0.04" stroke-width="0.984621"/>
<path d="M813.573 288.613H743.331V358.845H813.573V288.613Z" stroke="white" stroke-opacity="0.04" stroke-width="0.984621"/>
<path d="M883.815 288.613H813.573V358.845H883.815V288.613Z" stroke="white" stroke-opacity="0.04" stroke-width="0.984621"/>
<path d="M954.057 288.613H883.815V358.845H954.057V288.613Z" stroke="white" stroke-opacity="0.04" stroke-width="0.984621"/>
<path d="M1024.3 288.613H954.057V358.845H1024.3V288.613Z" stroke="white" stroke-opacity="0.04" stroke-width="0.984621"/>
<path d="M1094.54 288.613H1024.3V358.845H1094.54V288.613Z" stroke="white" stroke-opacity="0.04" stroke-width="0.984621"/>
<path d="M1164.78 288.613H1094.54V358.845H1164.78V288.613Z" stroke="white" stroke-opacity="0.04" stroke-width="0.984621"/>
<path d="M1235.02 288.613H1164.78V358.845H1235.02V288.613Z" stroke="white" stroke-opacity="0.04" stroke-width="0.984621"/>
<path d="M1305.27 288.613H1235.02V358.845H1305.27V288.613Z" stroke="white" stroke-opacity="0.04" stroke-width="0.984621"/>
<path d="M40.9111 358.853H-29.3309V429.084H40.9111V358.853Z" stroke="white" stroke-opacity="0.04" stroke-width="0.984621"/>
<path d="M111.153 358.853H40.9111V429.084H111.153V358.853Z" stroke="white" stroke-opacity="0.04" stroke-width="0.984621"/>
<path d="M181.395 358.853H111.153V429.084H181.395V358.853Z" stroke="white" stroke-opacity="0.04" stroke-width="0.984621"/>
<path d="M251.637 358.853H181.395V429.084H251.637V358.853Z" fill="white" fill-opacity="0.04" stroke="white" stroke-opacity="0.04" stroke-width="0.984621"/>
<path d="M321.88 358.853H251.638V429.084H321.88V358.853Z" stroke="white" stroke-opacity="0.04" stroke-width="0.984621"/>
<path d="M392.122 358.853H321.88V429.084H392.122V358.853Z" stroke="white" stroke-opacity="0.04" stroke-width="0.984621"/>
<path d="M462.364 358.853H392.122V429.084H462.364V358.853Z" stroke="white" stroke-opacity="0.04" stroke-width="0.984621"/>
<path d="M532.606 358.853H462.364V429.084H532.606V358.853Z" stroke="white" stroke-opacity="0.04" stroke-width="0.984621"/>
<path d="M602.848 358.853H532.605V429.084H602.848V358.853Z" stroke="white" stroke-opacity="0.04" stroke-width="0.984621"/>
<path d="M673.089 358.853H602.847V429.084H673.089V358.853Z" stroke="white" stroke-opacity="0.04" stroke-width="0.984621"/>
<path d="M743.331 358.853H673.089V429.084H743.331V358.853Z" stroke="white" stroke-opacity="0.04" stroke-width="0.984621"/>
<path d="M813.573 358.853H743.331V429.084H813.573V358.853Z" stroke="white" stroke-opacity="0.04" stroke-width="0.984621"/>
<path d="M883.815 358.853H813.573V429.084H883.815V358.853Z" stroke="white" stroke-opacity="0.04" stroke-width="0.984621"/>
<path d="M954.057 358.853H883.815V429.084H954.057V358.853Z" stroke="white" stroke-opacity="0.04" stroke-width="0.984621"/>
<path d="M1024.3 358.853H954.057V429.084H1024.3V358.853Z" stroke="white" stroke-opacity="0.04" stroke-width="0.984621"/>
<path d="M1094.54 358.853H1024.3V429.084H1094.54V358.853Z" stroke="white" stroke-opacity="0.04" stroke-width="0.984621"/>
<path d="M1164.78 358.853H1094.54V429.084H1164.78V358.853Z" stroke="white" stroke-opacity="0.04" stroke-width="0.984621"/>
<path d="M1235.02 358.853H1164.78V429.084H1235.02V358.853Z" stroke="white" stroke-opacity="0.04" stroke-width="0.984621"/>
<path d="M1305.27 358.853H1235.02V429.084H1305.27V358.853Z" stroke="white" stroke-opacity="0.04" stroke-width="0.984621"/>
<path d="M40.9111 429.094H-29.3309V499.325H40.9111V429.094Z" stroke="white" stroke-opacity="0.04" stroke-width="0.984621"/>
<path d="M111.153 429.094H40.9111V499.325H111.153V429.094Z" stroke="white" stroke-opacity="0.04" stroke-width="0.984621"/>
<path d="M181.395 429.094H111.153V499.325H181.395V429.094Z" stroke="white" stroke-opacity="0.04" stroke-width="0.984621"/>
<path d="M251.637 429.094H181.395V499.325H251.637V429.094Z" stroke="white" stroke-opacity="0.04" stroke-width="0.984621"/>
<path d="M321.88 429.094H251.638V499.325H321.88V429.094Z" stroke="white" stroke-opacity="0.04" stroke-width="0.984621"/>
<path d="M392.122 429.094H321.88V499.325H392.122V429.094Z" stroke="white" stroke-opacity="0.04" stroke-width="0.984621"/>
<path d="M462.364 429.094H392.122V499.325H462.364V429.094Z" stroke="white" stroke-opacity="0.04" stroke-width="0.984621"/>
<path d="M532.606 429.094H462.364V499.325H532.606V429.094Z" stroke="white" stroke-opacity="0.04" stroke-width="0.984621"/>
<path d="M602.848 429.094H532.605V499.325H602.848V429.094Z" stroke="white" stroke-opacity="0.04" stroke-width="0.984621"/>
<path d="M673.089 429.094H602.847V499.325H673.089V429.094Z" stroke="white" stroke-opacity="0.04" stroke-width="0.984621"/>
<path d="M743.331 429.094H673.089V499.325H743.331V429.094Z" stroke="white" stroke-opacity="0.04" stroke-width="0.984621"/>
<path d="M813.573 429.094H743.331V499.325H813.573V429.094Z" stroke="white" stroke-opacity="0.04" stroke-width="0.984621"/>
<path d="M883.815 429.094H813.573V499.325H883.815V429.094Z" stroke="white" stroke-opacity="0.04" stroke-width="0.984621"/>
<path d="M954.057 429.094H883.815V499.325H954.057V429.094Z" stroke="white" stroke-opacity="0.04" stroke-width="0.984621"/>
<path d="M1024.3 429.094H954.057V499.325H1024.3V429.094Z" stroke="white" stroke-opacity="0.04" stroke-width="0.984621"/>
<path d="M1094.54 429.094H1024.3V499.325H1094.54V429.094Z" stroke="white" stroke-opacity="0.04" stroke-width="0.984621"/>
<path d="M1164.78 429.094H1094.54V499.325H1164.78V429.094Z" stroke="white" stroke-opacity="0.04" stroke-width="0.984621"/>
<path d="M1235.02 429.094H1164.78V499.325H1235.02V429.094Z" stroke="white" stroke-opacity="0.04" stroke-width="0.984621"/>
<path d="M1305.27 429.094H1235.02V499.325H1305.27V429.094Z" stroke="white" stroke-opacity="0.04" stroke-width="0.984621"/>
<path d="M40.9111 499.308H-29.3309V569.539H40.9111V499.308Z" stroke="white" stroke-opacity="0.04" stroke-width="0.984621"/>
<path d="M111.153 499.308H40.9111V569.539H111.153V499.308Z" stroke="white" stroke-opacity="0.04" stroke-width="0.984621"/>
<path d="M181.395 499.308H111.153V569.539H181.395V499.308Z" stroke="white" stroke-opacity="0.04" stroke-width="0.984621"/>
<path d="M251.637 499.308H181.395V569.539H251.637V499.308Z" stroke="white" stroke-opacity="0.04" stroke-width="0.984621"/>
<path d="M321.88 499.308H251.638V569.539H321.88V499.308Z" stroke="white" stroke-opacity="0.04" stroke-width="0.984621"/>
<path d="M392.122 499.308H321.88V569.539H392.122V499.308Z" stroke="white" stroke-opacity="0.04" stroke-width="0.984621"/>
<path d="M462.364 499.308H392.122V569.539H462.364V499.308Z" stroke="white" stroke-opacity="0.04" stroke-width="0.984621"/>
<path d="M532.606 499.308H462.364V569.539H532.606V499.308Z" stroke="white" stroke-opacity="0.04" stroke-width="0.984621"/>
<path d="M602.848 499.308H532.605V569.539H602.848V499.308Z" stroke="white" stroke-opacity="0.04" stroke-width="0.984621"/>
<path d="M673.089 499.308H602.847V569.539H673.089V499.308Z" stroke="white" stroke-opacity="0.04" stroke-width="0.984621"/>
<path d="M743.331 499.308H673.089V569.539H743.331V499.308Z" stroke="white" stroke-opacity="0.04" stroke-width="0.984621"/>
<path d="M813.573 499.308H743.331V569.539H813.573V499.308Z" stroke="white" stroke-opacity="0.04" stroke-width="0.984621"/>
<path d="M883.815 499.308H813.573V569.539H883.815V499.308Z" stroke="white" stroke-opacity="0.04" stroke-width="0.984621"/>
<path d="M954.057 499.308H883.815V569.539H954.057V499.308Z" stroke="white" stroke-opacity="0.04" stroke-width="0.984621"/>
<path d="M1024.3 499.308H954.057V569.539H1024.3V499.308Z" stroke="white" stroke-opacity="0.04" stroke-width="0.984621"/>
<path d="M1094.54 499.308H1024.3V569.539H1094.54V499.308Z" stroke="white" stroke-opacity="0.04" stroke-width="0.984621"/>
<path d="M1164.78 499.308H1094.54V569.539H1164.78V499.308Z" stroke="white" stroke-opacity="0.04" stroke-width="0.984621"/>
<path d="M1235.02 499.308H1164.78V569.539H1235.02V499.308Z" stroke="white" stroke-opacity="0.04" stroke-width="0.984621"/>
<path d="M1305.27 499.308H1235.02V569.539H1305.27V499.308Z" stroke="white" stroke-opacity="0.04" stroke-width="0.984621"/>
<path d="M40.9111 569.548H-29.3309V639.779H40.9111V569.548Z" stroke="white" stroke-opacity="0.04" stroke-width="0.984621"/>
<path d="M111.153 569.548H40.9111V639.779H111.153V569.548Z" stroke="white" stroke-opacity="0.04" stroke-width="0.984621"/>
<path d="M181.395 569.548H111.153V639.779H181.395V569.548Z" stroke="white" stroke-opacity="0.04" stroke-width="0.984621"/>
<path d="M251.637 569.548H181.395V639.779H251.637V569.548Z" stroke="white" stroke-opacity="0.04" stroke-width="0.984621"/>
<path d="M321.88 569.548H251.638V639.779H321.88V569.548Z" stroke="white" stroke-opacity="0.04" stroke-width="0.984621"/>
<path d="M392.122 569.548H321.88V639.779H392.122V569.548Z" stroke="white" stroke-opacity="0.04" stroke-width="0.984621"/>
<path d="M462.364 569.548H392.122V639.779H462.364V569.548Z" stroke="white" stroke-opacity="0.04" stroke-width="0.984621"/>
<path d="M532.606 569.548H462.364V639.779H532.606V569.548Z" stroke="white" stroke-opacity="0.04" stroke-width="0.984621"/>
<path d="M602.848 569.548H532.605V639.779H602.848V569.548Z" stroke="white" stroke-opacity="0.04" stroke-width="0.984621"/>
<path d="M673.089 569.548H602.847V639.779H673.089V569.548Z" stroke="white" stroke-opacity="0.04" stroke-width="0.984621"/>
<path d="M743.331 569.548H673.089V639.779H743.331V569.548Z" stroke="white" stroke-opacity="0.04" stroke-width="0.984621"/>
<path d="M813.573 569.548H743.331V639.779H813.573V569.548Z" stroke="white" stroke-opacity="0.04" stroke-width="0.984621"/>
<path d="M883.815 569.548H813.573V639.779H883.815V569.548Z" stroke="white" stroke-opacity="0.04" stroke-width="0.984621"/>
<path d="M954.057 569.548H883.815V639.779H954.057V569.548Z" stroke="white" stroke-opacity="0.04" stroke-width="0.984621"/>
<path d="M1024.3 569.548H954.057V639.779H1024.3V569.548Z" stroke="white" stroke-opacity="0.04" stroke-width="0.984621"/>
<path d="M1094.54 569.548H1024.3V639.779H1094.54V569.548Z" stroke="white" stroke-opacity="0.04" stroke-width="0.984621"/>
<path d="M1164.78 569.548H1094.54V639.779H1164.78V569.548Z" stroke="white" stroke-opacity="0.04" stroke-width="0.984621"/>
<path d="M1235.02 569.548H1164.78V639.779H1235.02V569.548Z" stroke="white" stroke-opacity="0.04" stroke-width="0.984621"/>
<path d="M1305.27 569.548H1235.02V639.779H1305.27V569.548Z" stroke="white" stroke-opacity="0.04" stroke-width="0.984621"/>
<path d="M40.9111 639.769H-29.3309V710H40.9111V639.769Z" stroke="white" stroke-opacity="0.04" stroke-width="0.984621"/>
<path d="M111.153 639.769H40.9111V710H111.153V639.769Z" stroke="white" stroke-opacity="0.04" stroke-width="0.984621"/>
<path d="M181.395 639.769H111.153V710H181.395V639.769Z" stroke="white" stroke-opacity="0.04" stroke-width="0.984621"/>
<path d="M251.637 639.769H181.395V710H251.637V639.769Z" stroke="white" stroke-opacity="0.04" stroke-width="0.984621"/>
<path d="M321.88 639.769H251.638V710H321.88V639.769Z" stroke="white" stroke-opacity="0.04" stroke-width="0.984621"/>
<path d="M392.122 639.769H321.88V710H392.122V639.769Z" stroke="white" stroke-opacity="0.04" stroke-width="0.984621"/>
<path d="M462.364 639.769H392.122V710H462.364V639.769Z" stroke="white" stroke-opacity="0.04" stroke-width="0.984621"/>
<path d="M532.606 639.769H462.364V710H532.606V639.769Z" stroke="white" stroke-opacity="0.04" stroke-width="0.984621"/>
<path d="M602.848 639.769H532.605V710H602.848V639.769Z" stroke="white" stroke-opacity="0.04" stroke-width="0.984621"/>
<path d="M673.089 639.769H602.847V710H673.089V639.769Z" stroke="white" stroke-opacity="0.04" stroke-width="0.984621"/>
<path d="M743.331 639.769H673.089V710H743.331V639.769Z" stroke="white" stroke-opacity="0.04" stroke-width="0.984621"/>
<path d="M813.573 639.769H743.331V710H813.573V639.769Z" stroke="white" stroke-opacity="0.04" stroke-width="0.984621"/>
<path d="M883.815 639.769H813.573V710H883.815V639.769Z" stroke="white" stroke-opacity="0.04" stroke-width="0.984621"/>
<path d="M954.057 639.769H883.815V710H954.057V639.769Z" stroke="white" stroke-opacity="0.04" stroke-width="0.984621"/>
<path d="M1024.3 639.769H954.057V710H1024.3V639.769Z" stroke="white" stroke-opacity="0.04" stroke-width="0.984621"/>
<path d="M1094.54 639.769H1024.3V710H1094.54V639.769Z" stroke="white" stroke-opacity="0.04" stroke-width="0.984621"/>
<path d="M1164.78 639.769H1094.54V710H1164.78V639.769Z" stroke="white" stroke-opacity="0.04" stroke-width="0.984621"/>
<path d="M1235.02 639.769H1164.78V710H1235.02V639.769Z" stroke="white" stroke-opacity="0.04" stroke-width="0.984621"/>
<path d="M1305.27 639.769H1235.02V710H1305.27V639.769Z" stroke="white" stroke-opacity="0.04" stroke-width="0.984621"/>
</mask>
<g mask="url(#mask0_5_26)">
<path d="M639.5 696C1112.53 696 1496 500.348 1496 259C1496 17.6516 1112.53 -178 639.5 -178C166.468 -178 -217 17.6516 -217 259C-217 500.348 166.468 696 639.5 696Z" fill="url(#paint0_radial_5_26)"/>
</g>
</g>
<defs>
<radialGradient id="paint0_radial_5_26" cx="0" cy="0" r="1" gradientUnits="userSpaceOnUse" gradientTransform="translate(639.5 259) rotate(90) scale(437 856.5)">
<stop stop-color="white"/>
<stop offset="1"/>
</radialGradient>
<clipPath id="clip0_5_26">
<rect width="1481" height="913" fill="white" transform="translate(-101 -203)"/>
</clipPath>
</defs>
</svg>
