<svg width="93" height="16" viewBox="0 0 93 16" fill="none" xmlns="http://www.w3.org/2000/svg">
<g clip-path="url(#clip0_36_5)">
<path d="M57.8375 15.4872C57.7355 15.7934 57.449 16 57.126 16H55.083C54.5592 16 54.1967 15.4765 54.381 14.9861L59.5785 1.15752C59.84 0.461168 60.506 0 61.25 0C62.0032 0 62.6787 0.463583 62.9495 1.16637L68.2737 14.9803C68.463 15.4716 68.1005 16 67.5738 16L65.5253 16C65.21 16 64.9283 15.8027 64.8205 15.5063L63 10.5L61.4865 6.06787C61.4095 5.84225 61.0905 5.84225 61.0135 6.06787L59.5 10.5L57.8375 15.4872Z" fill="white"/>
<path d="M50.079 0.512828C50.1813 0.20657 50.4678 -1.42739e-06 50.7905 0L52.8335 9.0333e-06C53.3575 1.13497e-05 53.72 0.523473 53.5355 1.01387L48.3383 14.8425C48.0765 15.5388 47.4105 16 46.6668 16C45.9135 16 45.238 15.5364 44.967 14.8336L39.643 1.01973C39.4538 0.528398 39.8163 1.137e-07 40.3428 2.44192e-06L42.3913 1.14996e-05C42.7068 1.2894e-05 42.9885 0.197313 43.0963 0.493703L44.9168 5.5L46.43 9.93212C46.507 10.1577 46.8263 10.1577 46.9033 9.93212L48.4168 5.5L50.079 0.512828Z" fill="white"/>
<path d="M35.3055 0C35.7197 0 36.0555 0.335788 36.0555 0.75V15.25C36.0555 15.6642 35.7197 16 35.3055 16H33.25C32.8358 16 32.5 15.6642 32.5 15.25V0.75C32.5 0.335788 32.8358 0 33.25 0H35.3055Z" fill="white"/>
<path d="M25.579 0.512828C25.6813 0.20657 25.9678 -1.42739e-06 26.2905 0L28.3335 9.0333e-06C28.8575 1.13497e-05 29.22 0.523473 29.0355 1.01387L23.8383 14.8425C23.5766 15.5388 22.9106 16 22.1667 16C21.4135 16 20.738 15.5364 20.4671 14.8336L15.1431 1.01973C14.9537 0.528398 15.3163 1.137e-07 15.8429 2.44192e-06L17.8914 1.14996e-05C18.2067 1.2894e-05 18.4884 0.197313 18.5962 0.493703L20.4167 5.5L21.9301 9.93212C22.0071 10.1577 22.3262 10.1577 22.4033 9.93212L23.9167 5.5L25.579 0.512828Z" fill="white"/>
<path d="M3.83758 15.4872C3.7355 15.7934 3.4489 16 3.12608 16H1.08308C0.559188 16 0.196714 15.4765 0.381026 14.9861L5.57835 1.15752C5.84008 0.461168 6.50605 0 7.24998 0C8.00315 0 8.67865 0.463583 8.94953 1.16637L14.2736 14.9803C14.463 15.4716 14.1004 16 13.5738 16L11.5253 16C11.2099 16 10.9282 15.8027 10.8205 15.5063L8.99998 10.5L7.48658 6.06787C7.40953 5.84225 7.09043 5.84225 7.0134 6.06787L5.49998 10.5L3.83758 15.4872Z" fill="white"/>
</g>
<path d="M77.8068 12.5V3.77273H80.858C81.4659 3.77273 81.9673 3.87784 82.3622 4.08807C82.7571 4.29545 83.0511 4.57528 83.2443 4.92756C83.4375 5.27699 83.5341 5.66477 83.5341 6.09091C83.5341 6.46591 83.4673 6.77557 83.3338 7.01989C83.2031 7.2642 83.0298 7.45739 82.8139 7.59943C82.6009 7.74148 82.3693 7.84659 82.1193 7.91477V8C82.3864 8.01705 82.6548 8.1108 82.9247 8.28125C83.1946 8.4517 83.4205 8.69602 83.6023 9.0142C83.7841 9.33239 83.875 9.72159 83.875 10.1818C83.875 10.6193 83.7756 11.0128 83.5767 11.3622C83.3778 11.7116 83.0639 11.9886 82.6349 12.1932C82.206 12.3977 81.6477 12.5 80.9602 12.5H77.8068ZM78.8636 11.5625H80.9602C81.6506 11.5625 82.1406 11.429 82.4304 11.1619C82.723 10.892 82.8693 10.5653 82.8693 10.1818C82.8693 9.88636 82.794 9.61364 82.6435 9.36364C82.4929 9.1108 82.2784 8.90909 82 8.75852C81.7216 8.60511 81.392 8.52841 81.0114 8.52841H78.8636V11.5625ZM78.8636 7.60795H80.8239C81.142 7.60795 81.429 7.54545 81.6847 7.42045C81.9432 7.29545 82.1477 7.11932 82.2983 6.89205C82.4517 6.66477 82.5284 6.39773 82.5284 6.09091C82.5284 5.70739 82.3949 5.3821 82.1278 5.11506C81.8608 4.84517 81.4375 4.71023 80.858 4.71023H78.8636V7.60795ZM85.6115 12.5V3.77273H88.5604C89.2422 3.77273 89.8018 3.8892 90.2393 4.12216C90.6768 4.35227 91.0007 4.66903 91.2109 5.07244C91.4212 5.47585 91.5263 5.93466 91.5263 6.44886C91.5263 6.96307 91.4212 7.41903 91.2109 7.81676C91.0007 8.21449 90.6783 8.52699 90.2436 8.75426C89.8089 8.97869 89.2536 9.09091 88.5774 9.09091H86.1911V8.13636H88.5433C89.0092 8.13636 89.3842 8.06818 89.6683 7.93182C89.9553 7.79545 90.1626 7.60227 90.2905 7.35227C90.4212 7.09943 90.4865 6.7983 90.4865 6.44886C90.4865 6.09943 90.4212 5.79403 90.2905 5.53267C90.1598 5.27131 89.951 5.0696 89.6641 4.92756C89.3771 4.78267 88.9979 4.71023 88.5263 4.71023H86.6683V12.5H85.6115ZM89.7195 8.57955L91.8672 12.5H90.6399L88.5263 8.57955H89.7195Z" fill="#3F3F46"/>
<defs>
<clipPath id="clip0_36_5">
<rect width="68.75" height="16" fill="white"/>
</clipPath>
</defs>
</svg>
